#!OML:ASF F:\VICON\USERDATA\INSTALL\rory3\rory3.ASF
:FULLY-SPECIFIED
:DEGREES
141
root 0.12104178165098521 17.621691233009347 66.0589211290865 2.234510411532635 -0.6336005421166369 -2.064219265636779
lfemur -19.018307907425406 -2.2868568922064423 -18.73166916016139
ltibia 36.53678705113268
lfoot 7.83193216311763 -9.7137890732486
ltoes -10.28640591745456
rfemur -19.98956219326603 4.351401469959004 27.251535313089672
rtibia 34.84052026543764
rfoot 0.2519587124757323 -5.653588527456643
rtoes 5.753582888511932
lowerback 11.566915870668769 -0.21480763697817018 1.645183528647873
upperback -0.9071932704546362 -0.0809074408938073 1.8629898194751795
thorax -6.982324801642859 -0.09203992847233844 1.6786836451082645
lowerneck -17.97965075416681 -2.642231608770718 -3.9685887609710857
upperneck 18.7819053866885 -2.9693802111822705 2.2492765847314784
head 8.782200527829689 -1.3975365978060141 1.0746996652488585
lclavicle -2.2620176804646245e-15 6.844876632030661e-16
lhumerus -36.588870007413185 -11.055537987282216 90.17660757868285
lradius 76.38837075350811
lwrist 20.170590174492677
lhand -26.57546850289242 13.427692645585998
lfingers 7.125019999999999
lthumb -0.26558460826509417 43.12832047319955
rclavicle -2.2608156509680762e-15 6.853525790825885e-16
rhumerus -38.638017590471286 -5.026912941129938 -86.15885468221599
rradius 59.480785479794406
rwrist 1.0023877942168635
rhand -16.437282630512676 30.71620612851788
rfingers 7.125019999999999
rthumb 8.673163356764446 1.220661689775485
142
root 0.10132020951954215 17.588827582264564 66.26618935417454 2.213278398243335 -0.7648315382095202 -2.649660983016922
lfemur -18.642638986301407 -1.9203434737667784 -18.34429000332481
ltibia 36.2076668564484
lfoot 8.860899852275256 -10.939241744699173
ltoes -8.17327141005583
rfemur -18.86582790007572 5.06620604095048 28.028736621035925
rtibia 34.54429893385178
rfoot -0.2068013188075375 -4.661724623423958
rtoes 6.770622318805923
lowerback 11.605293085371837 -0.14171529961772866 2.0567127812359263
upperback -0.9569422390099487 0.10416222271659104 2.0295310612540742
thorax -7.009682796285433 0.005375469550972234 1.628406485268024
lowerneck -17.979045949998678 -2.631187436108803 -3.997141643944576
upperneck 18.74254117758822 -2.9423699671737236 2.1999123239245724
head 8.78024798487227 -1.3858536889168813 1.059509758303667
lclavicle -2.2630914971394393e-15 6.837351671096915e-16
lhumerus -37.24176223123571 -10.599157763727387 90.08170696138394
lradius 76.48549344088036
lwrist 20.143919953940454
lhand -26.72940985934731 13.213518393188574
lfingers 7.125019999999999
lthumb -0.4345684990882142 42.929754677724176
rclavicle -2.2606344099674747e-15 6.854796336259109e-16
rhumerus -38.89015338395718 -5.343527041532496 -85.95003466667829
rradius 59.35569944496266
rwrist 1.1540836243709065
rhand -16.488108492782843 30.75080962248674
rfingers 7.125019999999999
rthumb 8.616835282939741 1.2497715154266769
143
root 0.0827139333550188 17.56376767680811 66.54001719350231 2.1323825709485362 -1.0050420911308904 -2.5666246175771357
lfemur -18.330568296164262 -1.563762213280441 -18.57373113225426
ltibia 36.1704585480522
lfoot 9.679548030718175 -11.797584361954254
ltoes -6.272513218489703
rfemur -17.581752174043647 5.636959345144352 28.259092030385784
rtibia 34.61834937348331
rfoot -0.6063555130192968 -3.58369353988584
rtoes 7.5994139758898775
lowerback 11.620377443787165 0.009352587989628569 1.9448945912550988
upperback -0.9651365082629184 0.2902748686469143 2.0380485014311245
thorax -7.024957864893199 0.11946543060593662 1.714312188229132
lowerneck -17.938383593132396 -2.61733709833461 -4.0296255251778685
upperneck 18.674433149774234 -2.914719042921144 2.170745105969656
head 8.758070877629503 -1.3726293788276933 1.05590954466631
lclavicle -2.2624729628307293e-15 6.841685046531271e-16
lhumerus -38.10454408130216 -10.089111437366864 90.10104043725303
lradius 76.09608526208018
lwrist 19.947218682644902
lhand -27.01503774602074 12.939035401405429
lfingers 7.125019999999999
lthumb -0.6406964063944156 42.82714966754945
rclavicle -2.261756784942027e-15 6.84692716738784e-16
rhumerus -39.1053315224412 -5.691369572004523 -85.7341696052843
rradius 59.13975434062647
rwrist 1.3499208099403144
rhand -16.559276692305453 30.780303994985903
rfingers 7.125019999999999
rthumb 8.567750299374193 1.2780031503035532
144
root 0.06088087159813163 17.533260677841987 66.77863711873903 2.0089201900526534 -0.7508882656701875 -2.4932317524559853
lfemur -18.116882226233784 -1.6147489756043827 -18.81865881690207
ltibia 36.455416862817636
lfoot 10.243122794850315 -12.384605571780208
ltoes -5.090693680889238
rfemur -16.247152066489534 5.640851926649894 28.431297220845853
rtibia 35.03874075729641
rfoot -0.9817534912288877 -2.7340254680934017
rtoes 9.549735936160943
lowerback 11.736503743017366 0.0008138179460035477 1.948139466203819
upperback -0.9563065794227865 0.2830648330394909 2.05852003528325
thorax -7.076206456896509 0.1195476383040539 1.80347113794893
lowerneck -17.889486736060885 -2.610883490481883 -4.039448149331329
upperneck 18.634088047638954 -2.8971560767491065 2.1207259019703772
head 8.739997097709118 -1.3693808886457948 1.0439881686960297
lclavicle -2.2621217149113816e-15 6.844150477840876e-16
lhumerus -39.04786031598663 -9.581195673516891 90.19160700094844
lradius 75.1666509579056
lwrist 19.74383628256278
lhand -27.214054469892737 12.834595647382255
lfingers 7.125019999999999
lthumb -0.6977235339074168 42.84915982933555
rclavicle -2.2616921211444304e-15 6.847381143598415e-16
rhumerus -39.31266765725482 -6.0752226342751285 -85.58041246695961
rradius 58.97232936197495
rwrist 1.556250092444274
rhand -16.61613738544394 30.785305042650737
rfingers 7.125019999999999
rthumb 8.54630439709515 1.27424817222415
